<?xml version="1.0" encoding="utf-8"?>
<!-- Generator: Adobe Illustrator 23.0.1, SVG Export Plug-In . SVG Version: 6.00 Build 0)  -->
<svg version="1.1" id="aff40d89-77de-4835-bbf1-69878b2c71b2"
	 xmlns="http://www.w3.org/2000/svg" xmlns:xlink="http://www.w3.org/1999/xlink" x="0px" y="0px" viewBox="0 0 1000 400"
	 style="enable-background:new 0 0 1000 400;" xml:space="preserve">
<style type="text/css">
	.st0{fill:#3F3D56;}
	.st1{fill:#E6E6E6;}
	.st2{fill:#2F2E41;}
	.st3{fill:#FFFFFF;}
	.st4{fill:#EEA849;}
	.st5{fill:#1488CC;}
	.st6{fill:#CCCCCC;}
</style>
<path class="st0" d="M790.6,378.7H374.1c-0.6,0-1.2-0.5-1.2-1.2V105.3c0-0.6,0.5-1.2,1.2-1.1c0.6,0,1.1,0.5,1.1,1.1v271.1h415.3
	c0.6,0,1.2,0.5,1.2,1.2S791.2,378.7,790.6,378.7z"/>
<path class="st0" d="M790.6,324.5H374.1c-0.6,0-1.2-0.5-1.2-1.2s0.5-1.2,1.2-1.2l0,0h416.5c0.6,0,1.2,0.5,1.2,1.2
	S791.2,324.5,790.6,324.5z"/>
<path class="st0" d="M791.2,280.7H374.7c-0.6,0-1.2-0.5-1.2-1.2s0.5-1.2,1.2-1.2h416.5c0.6,0,1.2,0.5,1.2,1.2
	S791.8,280.7,791.2,280.7z"/>
<path class="st0" d="M791.2,236.8H374.7c-0.6,0-1.2-0.5-1.1-1.2c0-0.6,0.5-1.1,1.1-1.1h416.5c0.6,0,1.2,0.5,1.1,1.2
	C792.3,236.3,791.8,236.8,791.2,236.8z"/>
<path class="st0" d="M791.2,193H374.7c-0.6,0-1.2-0.5-1.2-1.2c0-0.6,0.5-1.2,1.2-1.2h416.5c0.6,0,1.2,0.5,1.2,1.2
	C792.3,192.5,791.8,193,791.2,193z"/>
<path class="st0" d="M791.2,149.1H374.7c-0.6,0-1.2-0.5-1.2-1.2c0-0.6,0.5-1.2,1.2-1.2h416.5c0.6,0,1.2,0.5,1.2,1.2
	C792.3,148.6,791.8,149.1,791.2,149.1z"/>
<path class="st0" d="M791.2,105.3H374.7c-0.6,0-1.2-0.5-1.1-1.2c0-0.6,0.5-1.1,1.1-1.1h416.5c0.6,0,1.2,0.5,1.1,1.2
	C792.3,104.8,791.8,105.3,791.2,105.3z"/>
<path class="st0" d="M415,376.8h-14.5c-3.7,0-6.7-3-6.7-6.7v-40.1c0-3.7,3-6.7,6.7-6.7H415c3.7,0,6.7,3,6.7,6.7V370
	C421.7,373.7,418.7,376.8,415,376.8z"/>
<path class="st0" d="M475.6,376.8H461c-3.7,0-6.7-3-6.7-6.7V296c0-3.7,3-6.7,6.7-6.7h14.5c3.7,0,6.7,3,6.7,6.7V370
	C482.3,373.7,479.3,376.8,475.6,376.8z"/>
<path class="st1" d="M596.7,376.8h-14.5c-3.7,0-6.7-3-6.7-6.7V216c0-3.7,3-6.7,6.7-6.7h14.5c3.7,0,6.7,3,6.7,6.7v154
	C603.4,373.7,600.4,376.8,596.7,376.8z"/>
<path class="st0" d="M535.5,376.8H521c-3.7,0-6.7-3-6.7-6.7V268.8c0-3.7,3-6.7,6.7-6.7h14.5c3.7,0,6.7,3,6.7,6.7V370
	C542.3,373.7,539.3,376.8,535.5,376.8z"/>
<path class="st0" d="M657.3,376.8h-14.5c-3.7,0-6.7-3-6.7-6.7V175.5c0-3.7,3-6.7,6.7-6.7h14.5c3.7,0,6.7,3,6.7,6.7V370
	C664,373.7,661,376.8,657.3,376.8z"/>
<path class="st0" d="M717.8,376.8h-14.5c-3.7,0-6.7-3-6.7-6.7V216c0-3.7,3-6.7,6.7-6.7h14.5c3.7,0,6.7,3,6.7,6.7v154
	C724.6,373.7,721.5,376.8,717.8,376.8z"/>
<path class="st1" d="M778.4,376.8h-14.5c-3.7,0-6.7-3-6.7-6.7V109.6c0-3.7,3-6.7,6.7-6.7h14.5c3.7,0,6.7,3,6.7,6.7V370
	C785.1,373.7,782.1,376.8,778.4,376.8z"/>
<ellipse transform="matrix(0.1602 -0.9871 0.9871 0.1602 386.5146 667.34)" class="st2" cx="585.4" cy="106.5" rx="42" ry="42"/>
<rect x="550.7" y="138.6" transform="matrix(0.8941 -0.4478 0.4478 0.8941 -5.4056 267.0366)" class="st2" width="22.9" height="12.8"/>
<ellipse transform="matrix(0.5505 -0.8349 0.8349 0.5505 122.3951 524.8354)" class="st2" cx="548.5" cy="148.8" rx="4" ry="10.6"/>
<rect x="602.4" y="133.5" transform="matrix(0.4478 -0.8941 0.8941 0.4478 206.5766 624.3854)" class="st2" width="12.8" height="22.9"/>
<ellipse transform="matrix(0.8349 -0.5505 0.5505 0.8349 20.8827 367.1372)" class="st2" cx="622.3" cy="148.8" rx="10.6" ry="4"/>
<ellipse transform="matrix(0.1666 -0.986 0.986 0.1666 390.5589 654.5718)" class="st3" cx="582.5" cy="96.2" rx="14.4" ry="14.4"/>
<ellipse transform="matrix(0.7071 -0.7071 0.7071 0.7071 98.443 441.8625)" class="st0" cx="582.6" cy="102.1" rx="4.8" ry="4.8"/>
<path class="st4" d="M618.6,60.8c0.6-15.6-12.8-28.7-29.9-29.4S557,42.7,556.4,58.3s11.3,19.1,28.5,19.8S617.9,76.4,618.6,60.8z"/>
<ellipse transform="matrix(0.7588 -0.6514 0.6514 0.7588 78.435 436.9484)" class="st2" cx="629.1" cy="112.6" rx="6.6" ry="21"/>
<ellipse transform="matrix(0.6514 -0.7588 0.7588 0.6514 103.4908 450.4063)" class="st2" cx="541.9" cy="112.6" rx="21" ry="6.6"/>
<path class="st3" d="M597,123.1c0.9,5.2-2.5,10.2-7.7,11.1s-10.2-2.5-11.1-7.7l0,0c-0.9-5.2,3.1-7,8.3-8S596,117.9,597,123.1z"/>
<ellipse transform="matrix(0.7667 -0.642 0.642 0.7667 1.9716 659.0248)" class="st2" cx="907.8" cy="326.8" rx="6.8" ry="21.5"/>
<circle class="st2" cx="862" cy="319.3" r="43.1"/>
<rect x="867.2" y="353.1" class="st2" width="13.1" height="23.4"/>
<rect x="841" y="353.1" class="st2" width="13.1" height="23.4"/>
<ellipse class="st2" cx="869.3" cy="376.8" rx="10.9" ry="4.1"/>
<ellipse class="st2" cx="843.2" cy="376.3" rx="10.9" ry="4.1"/>
<path class="st5" d="M848.5,265.2c3.8-15.5,20.8-24.6,37.9-20.4s27.8,20.2,24,35.7s-16.6,15.5-33.7,11.3S844.7,280.7,848.5,265.2z"
	/>
<ellipse transform="matrix(0.4285 -0.9035 0.9035 0.4285 194.4403 906.0969)" class="st2" cx="813.5" cy="299.3" rx="6.8" ry="21.5"/>
<circle class="st3" cx="855.6" cy="310.2" r="14.4"/>
<circle class="st0" cx="849.7" cy="305.1" r="4.8"/>
<path class="st3" d="M864.6,340.1c0.9,5.2-2.5,10.2-7.7,11.1s-10.2-2.5-11.1-7.7l0,0l0,0c-0.9-5.2,3.1-7,8.3-8
	S863.7,334.9,864.6,340.1z"/>
<path class="st4" d="M803.6,391.6H789c-3.7,0-6.7-3-6.7-6.7V124.4c0-3.7,3-6.7,6.7-6.7h14.5c3.7,0,6.7,3,6.7,6.7v260.5
	C810.3,388.6,807.3,391.6,803.6,391.6z"/>
<circle class="st2" cx="191.5" cy="319.3" r="43.1"/>
<rect x="171.9" y="353.1" class="st2" width="13.1" height="23.4"/>
<rect x="198.1" y="353.1" class="st2" width="13.1" height="23.4"/>
<ellipse class="st2" cx="182.8" cy="376.8" rx="10.9" ry="4.1"/>
<ellipse class="st2" cx="209" cy="376.3" rx="10.9" ry="4.1"/>
<circle class="st3" cx="192.6" cy="308.4" r="14.7"/>
<circle class="st0" cx="192.6" cy="308.4" r="4.9"/>
<path class="st5" d="M149.8,279.3c-3.5-15.6,7.6-31.3,24.8-35.1s33.9,5.7,37.4,21.2s-7.9,21.3-25.1,25.2S153.2,294.8,149.8,279.3z"
	/>
<ellipse transform="matrix(0.357 -0.9341 0.9341 0.357 -13.0136 307.1918)" class="st2" cx="216.6" cy="163" rx="21.5" ry="6.8"/>
<circle class="st2" cx="176.8" cy="195.6" r="43.1"/>
<rect x="157.2" y="229.4" class="st2" width="13.1" height="23.4"/>
<rect x="183.4" y="229.4" class="st2" width="13.1" height="23.4"/>
<ellipse class="st2" cx="168.1" cy="253.1" rx="10.9" ry="4.1"/>
<ellipse class="st2" cx="194.3" cy="252.5" rx="10.9" ry="4.1"/>
<circle class="st3" cx="177.9" cy="184.7" r="14.7"/>
<circle class="st0" cx="177.9" cy="184.7" r="4.9"/>
<path class="st4" d="M135,155.5c-3.5-15.6,7.6-31.3,24.8-35.1s33.9,5.7,37.4,21.2s-7.9,21.3-25.1,25.2S138.5,171.1,135,155.5z"/>
<ellipse transform="matrix(0.4285 -0.9035 0.9035 0.4285 -85.318 216.2823)" class="st2" cx="128.3" cy="175.6" rx="6.8" ry="21.5"/>
<path class="st3" d="M155.7,211.1c0,4.2,10.9,12.5,22.9,12.5s23.3-11.9,23.3-16.1s-11.3,0.8-23.3,0.8S155.7,206.9,155.7,211.1z"/>
<path class="st4" d="M595.4,263.1l-14.1,3.5c-3.6,0.9-7.3-1.3-8.2-4.9L536,112.2c-0.9-3.6,1.3-7.3,4.9-8.2l14.1-3.5
	c3.6-0.9,7.3,1.3,8.2,4.9l37.1,149.4C601.2,258.5,599,262.2,595.4,263.1z"/>
<path class="st5" d="M259.9,186.3l-31.7,6.2c-1,0.2-2.1-0.1-2.9-0.8c-0.8-0.7-1.3-1.7-1.2-2.8c0.5-13-2-25.9-7.4-37.8
	c-0.5-1-0.4-2.1,0.1-3.1c0.5-0.9,1.4-1.6,2.4-1.8l31.7-6.2c1.7-0.3,3.3,0.6,3.9,2.2c4.7,13,7.4,26.7,7.9,40.5
	C262.8,184.5,261.6,186,259.9,186.3z"/>
<path class="st6" d="M120.9,215.3l-31.7,6.2c-1,0.2-2.1-0.1-2.9-0.8c-0.8-0.7-1.3-1.7-1.2-2.8c0.5-13-2-25.9-7.4-37.8
	c-0.5-1-0.4-2.1,0.1-3.1c0.5-0.9,1.4-1.6,2.4-1.8l31.7-6.2c1.7-0.3,3.3,0.6,3.9,2.2c4.7,13,7.4,26.7,7.9,40.5
	C123.8,213.5,122.6,215,120.9,215.3z"/>
<circle class="st1" cx="328.3" cy="104.1" r="11"/>
<circle class="st1" cx="328.3" cy="148" r="11"/>
<circle class="st1" cx="328.3" cy="191.8" r="11"/>
<circle class="st1" cx="328.3" cy="235.7" r="11"/>
<circle class="st1" cx="328.3" cy="279.5" r="11"/>
<circle class="st1" cx="328.3" cy="323.3" r="11"/>
</svg>
