<?xml version="1.0" encoding="utf-8"?>
<!-- Generator: Adobe Illustrator 23.0.1, SVG Export Plug-In . SVG Version: 6.00 Build 0)  -->
<svg version="1.1" id="Layer_1" xmlns="http://www.w3.org/2000/svg" xmlns:xlink="http://www.w3.org/1999/xlink" x="0px" y="0px"
	 viewBox="0 0 400 250" style="enable-background:new 0 0 400 250;" xml:space="preserve">
<style type="text/css">
	.st0{fill:#2F2E41;}
	.st1{fill:#FFFFFF;}
	.st2{fill:#3F3D56;}
	.st3{fill:#1488CC;}
	.st4{fill:#EEA849;}
	.st5{fill:none;stroke:#2F2E41;stroke-width:2;stroke-linecap:round;stroke-miterlimit:10;}
</style>
<g>
	
		<ellipse transform="matrix(0.9307 -0.3658 0.3658 0.9307 -29.1103 99.8172)" class="st0" cx="248.9" cy="126.7" rx="6.8" ry="21.1"/>
	<ellipse class="st0" cx="288.7" cy="158.5" rx="43.1" ry="42.1"/>
	<rect x="295.6" y="191.9" class="st0" width="13" height="22.5"/>
	<rect x="269.6" y="191.9" class="st0" width="13" height="22.5"/>
	<ellipse class="st0" cx="297.5" cy="214.7" rx="10.9" ry="4"/>
	<ellipse class="st0" cx="271.3" cy="214.1" rx="10.9" ry="4"/>
	<ellipse class="st1" cx="287.7" cy="147.9" rx="14.7" ry="14.3"/>
	<ellipse class="st2" cx="287.7" cy="147.9" rx="4.9" ry="4.8"/>
	<path class="st3" d="M293.4,130.4c-17.2-3.8-28.6-9.3-25.1-24.5s20.2-24.5,37.4-20.7c17.2,3.8,28.3,19.1,24.8,34.3
		C327,134.5,310.6,134.1,293.4,130.4z"/>
	
		<ellipse transform="matrix(0.9081 -0.4188 0.4188 0.9081 -27.2216 153.9798)" class="st0" cx="337.2" cy="139" rx="21.5" ry="6.6"/>
	<path class="st1" d="M287,171c-12,0-23.3-4.9-23.3-0.8S275,186,287,186s22.9-8.1,22.9-12.3C309.9,169.5,299,171,287,171z"/>
	<ellipse class="st0" cx="102.5" cy="213.5" rx="10.9" ry="4"/>
	<ellipse class="st0" cx="128.7" cy="212.9" rx="10.9" ry="4"/>
	
		<ellipse transform="matrix(0.8723 -0.4889 0.4889 0.8723 -49.9917 96.6732)" class="st0" cx="160.1" cy="144.1" rx="21.4" ry="6.6"/>
	<ellipse class="st0" cx="111.3" cy="157.2" rx="43.1" ry="42.1"/>
	<rect x="91.6" y="190.9" class="st0" width="13" height="22.5"/>
	<rect x="117.6" y="190.9" class="st0" width="13" height="22.5"/>
	<ellipse class="st1" cx="112.4" cy="146.6" rx="14.7" ry="14.3"/>
	<ellipse class="st2" cx="112.4" cy="146.6" rx="4.9" ry="4.8"/>
	<path class="st4" d="M69.5,118.1c-3.5-15.2,7.6-30.6,24.8-34.3s33.9,5.5,37.4,20.7s-7.9,20.9-25.1,24.5
		C89.4,132.9,73,133.3,69.5,118.1z"/>
	
		<ellipse transform="matrix(0.4188 -0.9081 0.9081 0.4188 -88.554 136.9714)" class="st0" cx="62.7" cy="137.7" rx="6.6" ry="21.5"/>
	<path class="st1" d="M90.1,172.4c0,4.1,10.8,12.3,22.9,12.3s23.3-11.6,23.3-15.7c0-4.1-11.3,0.8-23.3,0.8S90.1,168.3,90.1,172.4z"
		/>
	<path class="st5" d="M230.4,121.2c-2.9-4.8-2.6-11.3,0.7-14.8"/>
	<path class="st5" d="M234.6,118.2c-2-3.3-1.7-7.7,0.5-10"/>
	<path class="st5" d="M258.5,109.9c-1.4-5.3-6.5-9.8-11.3-9.9"/>
	<path class="st5" d="M253.4,110.7c-1-3.6-4.4-6.6-7.7-6.7"/>
	<path class="st5" d="M51.6,145.8c-0.2,8.8-0.2,17.5-0.1,26.3"/>
	<path class="st5" d="M61.6,154.7v18.6"/>
	<path class="st5" d="M176.1,144.8c0.2,8.8,0.2,17.5,0.1,26.3"/>
	<path class="st5" d="M166.6,153.8v18.6"/>
</g>
</svg>
