<?xml version="1.0" encoding="utf-8"?>
<!-- Generator: Adobe Illustrator 23.0.1, SVG Export Plug-In . SVG Version: 6.00 Build 0)  -->
<svg version="1.1" id="b3c5850d-3d23-4aad-a12c-b5e8440d4fde"
	 xmlns="http://www.w3.org/2000/svg" xmlns:xlink="http://www.w3.org/1999/xlink" x="0px" y="0px" viewBox="0 0 750.7 370"
	 style="enable-background:new 0 0 750.7 370;" xml:space="preserve">
<style type="text/css">
	.st0{fill:#2F2E41;}
	.st1{fill:none;stroke:#3F3D56;stroke-width:2;stroke-miterlimit:10;}
	.st2{fill:#3F3D56;}
	.st3{fill:#FFFFFF;}
	.st4{fill:#1488CC;}
	.st5{fill:#EEA849;}
</style>
<ellipse transform="matrix(0.9341 -0.357 0.357 0.9341 -13.6022 157.2688)" class="st0" cx="419.2" cy="115.5" rx="8.3" ry="26.4"/>
<path class="st1" d="M310.1,38.4"/>
<ellipse class="st2" cx="390.6" cy="337.9" rx="113.6" ry="15.4"/>
<circle class="st0" cx="384.4" cy="262.4" r="52.8"/>
<rect x="360.4" y="303.9" class="st0" width="16" height="28.7"/>
<rect x="392.5" y="303.9" class="st0" width="16" height="28.7"/>
<ellipse class="st0" cx="373.8" cy="332.9" rx="13.4" ry="5"/>
<ellipse class="st0" cx="405.8" cy="332.3" rx="13.4" ry="5"/>
<circle class="st3" cx="385.8" cy="249.1" r="18"/>
<circle class="st2" cx="385.8" cy="249.1" r="6"/>
<path class="st4" d="M333.2,213.4c-4.3-19.1,9.4-38.4,30.4-43.1s41.6,7,45.9,26c4.3,19.1-9.7,26.1-30.8,30.8
	C357.7,231.9,337.5,232.4,333.2,213.4z"/>
<circle class="st0" cx="366.4" cy="110.8" r="52.8"/>
<rect x="342.4" y="152.2" class="st0" width="16" height="28.7"/>
<rect x="374.4" y="152.2" class="st0" width="16" height="28.7"/>
<ellipse class="st0" cx="355.7" cy="181.3" rx="13.4" ry="5"/>
<ellipse class="st0" cx="387.8" cy="180.6" rx="13.4" ry="5"/>
<circle class="st3" cx="367.7" cy="97.4" r="18"/>
<circle class="st2" cx="368.4" cy="100.9" r="6"/>
<path class="st5" d="M315.2,61.7c-4.3-19.1,9.4-38.4,30.4-43.1s41.6,7,45.9,26s-9.7,26.1-30.8,30.8
	C339.7,80.2,319.5,80.8,315.2,61.7z"/>
<ellipse transform="matrix(0.3772 -0.9261 0.9261 0.3772 77.5685 364.8502)" class="st0" cx="310.1" cy="124.8" rx="26.4" ry="8.3"/>
<path class="st3" d="M368.5,142.1c14.8,0,28.6,6.2,28.6,1c0-5.2-13.8-19.7-28.6-19.7s-28.1,10.2-28.1,15.4
	C340.5,144,353.8,142.1,368.5,142.1z"/>
<circle class="st5" cx="323" cy="322.3" r="9.1"/>
<rect x="448.4" y="311.6" class="st4" width="24" height="24"/>
<circle class="st5" cx="448.6" cy="327.6" r="9.1"/>
<path class="st3" d="M386.6,282.7c9.7,0,18.9,10.4,18.9,5.3c0-1.6-9.1-11.2-18.9-11.2s-18.1,8.9-17.9,10.5
	C369.4,293.1,376.9,282.7,386.6,282.7z"/>
</svg>
