<?xml version="1.0" encoding="utf-8"?>
<!-- Generator: Adobe Illustrator 23.0.1, SVG Export Plug-In . SVG Version: 6.00 Build 0)  -->
<svg version="1.1" id="b3c5850d-3d23-4aad-a12c-b5e8440d4fde"
	 xmlns="http://www.w3.org/2000/svg" xmlns:xlink="http://www.w3.org/1999/xlink" x="0px" y="0px" viewBox="0 0 1009.7 458.3"
	 style="enable-background:new 0 0 1009.7 458.3;" xml:space="preserve">
<style type="text/css">
	.st0{fill:#2F2E41;}
	.st1{fill:#FFFFFF;}
	.st2{fill:#3F3D56;}
	.st3{fill:#E6E6E6;}
	.st4{fill:#EEA849;}
	.st5{opacity:0.15;enable-background:new    ;}
	.st6{fill:#1488CC;}
</style>
<ellipse transform="matrix(0.357 -0.9341 0.9341 0.357 -83.4122 602.3773)" class="st0" cx="395.9" cy="361.8" rx="21.5" ry="6.8"/>
<ellipse transform="matrix(0.1602 -0.9871 0.9871 0.1602 -90.195 682.5894)" class="st0" cx="356" cy="394.3" rx="43.1" ry="43.1"/>
<rect x="336.4" y="428.1" class="st0" width="13.1" height="23.4"/>
<rect x="362.6" y="428.1" class="st0" width="13.1" height="23.4"/>
<ellipse class="st0" cx="347.3" cy="451.8" rx="10.9" ry="4.1"/>
<ellipse class="st0" cx="373.5" cy="451.3" rx="10.9" ry="4.1"/>
<ellipse transform="matrix(0.9996 -2.937368e-02 2.937368e-02 0.9996 -11.1077 10.6559)" class="st1" cx="357.1" cy="383.4" rx="14.7" ry="14.7"/>
<circle class="st2" cx="357.1" cy="383.4" r="4.9"/>
<path class="st3" d="M314.3,354.2c-3.5-15.6,7.6-31.3,24.8-35.1s33.9,5.7,37.4,21.2s-7.9,21.3-25.1,25.2S317.7,369.8,314.3,354.2z"
	/>
<ellipse transform="matrix(0.4285 -0.9035 0.9035 0.4285 -162.4567 491.7805)" class="st0" cx="307.5" cy="374.3" rx="6.8" ry="21.5"/>
<path class="st1" d="M357.8,419.9c12,0,23.3,5,23.3,0.8s-11.3-16.1-23.3-16.1s-22.9,8.3-22.9,12.5S345.7,419.9,357.8,419.9z"/>
<path class="st4" d="M658.9,277.3l-46.8,46.2L506.4,427.8l-2.1,2.1l-11.9,11.8l-25-24.7l-2.2-2.2l-45.7-45.1h0l-14.6-14.5l-8.6-8.5
	l-25.8-25.4l-3.5-3.4l-41.1-40.6c-8.2-8.2-15.1-17.5-20.5-27.6c-0.5-0.9-1-1.8-1.4-2.8c-29.1-58-5.7-128.6,52.4-157.7
	c22.4-11.2,47.7-15,72.4-10.8h0c0.4,0.1,0.8,0.1,1.1,0.2c4,0.7,8,1.6,11.9,2.8c10.3,3,20,7.3,29.1,12.9c1,0.6,1.9,1.2,2.8,1.8
	c6.6,4.4,12.8,9.4,18.5,15.1l0.4-0.4l0.4,0.4c3.4-3.4,7-6.6,10.8-9.6c0.8-0.6,1.7-1.3,2.5-1.9c26-19.2,58.7-26.8,90.5-21.1
	c4,0.7,8,1.6,11.9,2.8c1.3,0.4,2.6,0.8,3.9,1.2c1,0.3,2.1,0.7,3.1,1.1c8.6,3.1,16.8,7.1,24.4,12.1c1.7,1.1,3.3,2.2,4.9,3.4
	c52.5,38.2,64.1,111.7,26,164.2C667.3,268.2,663.3,272.9,658.9,277.3z"/>
<path class="st5" d="M612.2,323.4L506.4,427.8l-2.1,2.1l-11.9,11.8l-25-24.7l-2.2-2.2l-45.7-45.1c7.3-1.7,18.6,0.6,22.8,2.7
	c9.8,4.8,17.8,12.8,27.8,17.3c8.9,4,18.8,5.1,28.3,3.1c17.8-3.7,31.6-17.5,43.8-31.1c12.2-13.6,24.6-28.1,41.7-34.4
	C592.8,323.9,602.5,323.2,612.2,323.4z"/>
<path class="st5" d="M454.6,85.8c-6.4,5.1-13.3,9.8-17.5,16.7c-3.1,5.1-4.4,11.1-5.4,17c-1.9,11.4-2.7,23.2-6.5,34.1
	c-3.8,11-11.1,21.5-21.9,25.5c-6.7,2.5-14.1,2.4-21.3,1.9c-17.7-1.2-35.5-4.4-51.4-12.2c-8.9-4.4-17.5-10.2-27.4-10.9
	c-2-0.1-4,0-6,0.3c17.8-55.7,73.9-89.8,131.6-80h0c0.4,0.1,0.8,0.1,1.1,0.2c4,0.7,8,1.6,11.9,2.8C446.1,82.5,450.4,84,454.6,85.8z"
	/>
<path class="st3" d="M252,405.5"/>
<circle class="st0" cx="385.8" cy="74.1" r="43.1"/>
<rect x="366.1" y="107.9" class="st0" width="13.1" height="23.4"/>
<rect x="392.3" y="107.9" class="st0" width="13.1" height="23.4"/>
<ellipse class="st0" cx="377" cy="131.6" rx="10.9" ry="4.1"/>
<ellipse class="st0" cx="403.2" cy="131" rx="10.9" ry="4.1"/>
<circle class="st1" cx="386.9" cy="63.1" r="14.7"/>
<ellipse transform="matrix(0.7073 -0.7069 0.7069 0.7073 68.9228 292.7429)" class="st2" cx="387.9" cy="63.1" rx="4.9" ry="4.9"/>
<path class="st6" d="M344,36c-3.5-15.6,7.6-31.3,24.8-35.1s33.9,5.7,37.4,21.2s-7.9,21.3-25.1,25.2S347.5,51.6,344,36z"/>
<ellipse transform="matrix(0.7715 -0.6362 0.6362 0.7715 -80.2753 482.596)" class="st0" cx="631.7" cy="353.1" rx="6.8" ry="21.5"/>
<circle class="st0" cx="669.2" cy="396" r="43.1"/>
<rect x="675.7" y="429.8" class="st0" width="13.1" height="23.4"/>
<rect x="649.6" y="429.8" class="st0" width="13.1" height="23.4"/>
<ellipse class="st0" cx="677.9" cy="453.6" rx="10.9" ry="4.1"/>
<ellipse class="st0" cx="651.8" cy="453" rx="10.9" ry="4.1"/>
<path class="st6" d="M684.3,373.1c-13.6-11.2-21.1-21.5-11-33.8s29.4-13.2,43-2s16.3,30.3,6.2,42.6S697.9,384.3,684.3,373.1z"/>
<circle class="st1" cx="654.3" cy="373.7" r="14.7"/>
<circle class="st2" cx="652.9" cy="373.7" r="4.9"/>
<path class="st1" d="M638.4,401.5c5.6,1.9,9.2,8.5,10.6,4.5c1.4-4,0-17-5.6-19c-5.6-1.9-13.4,4.2-14.8,8.2
	C627.3,399.3,632.8,399.6,638.4,401.5z"/>
<ellipse transform="matrix(0.9341 -0.357 0.357 0.9341 -108.4848 279.3459)" class="st0" cx="702.4" cy="433.5" rx="6.8" ry="21.5"/>
<polygon class="st1" points="496.6,83.8 455.6,169.3 502.8,220 455.6,266.1 516.8,295.3 455.6,329.5 493.4,444.1 490.4,338.8 
	560.2,289 493.4,260.6 539.2,218.6 487.6,168.4 532.8,73.2 "/>
</svg>
