<?xml version="1.0" encoding="utf-8"?>
<!-- Generator: Adobe Illustrator 23.0.1, SVG Export Plug-In . SVG Version: 6.00 Build 0)  -->
<svg version="1.1" id="b3c5850d-3d23-4aad-a12c-b5e8440d4fde"
	 xmlns="http://www.w3.org/2000/svg" xmlns:xlink="http://www.w3.org/1999/xlink" x="0px" y="0px" viewBox="0 0 700.7 500"
	 style="enable-background:new 0 0 700.7 500;" xml:space="preserve">
<style type="text/css">
	.st0{fill:#2F2E41;}
	.st1{fill:#FFFFFF;}
	.st2{fill:#3F3D56;}
	.st3{fill:#E6E6E6;}
	.st4{fill:#1488CC;}
	.st5{fill:url(#XMLID_2_);}
	.st6{fill:#EEA849;}
</style>
<ellipse class="st0" cx="225.5" cy="435.9" rx="16.4" ry="6.2"/>
<ellipse class="st0" cx="264.9" cy="435" rx="16.4" ry="6.2"/>
<ellipse transform="matrix(0.8664 -0.4994 0.4994 0.8664 -122.4349 199.881)" class="st0" cx="312.3" cy="328.7" rx="32.5" ry="10.2"/>
<ellipse transform="matrix(0.1602 -0.9871 0.9871 0.1602 -144.1864 528.7343)" class="st0" cx="238.6" cy="349.1" rx="65" ry="65"/>
<rect x="209" y="400.1" class="st0" width="19.7" height="35.4"/>
<rect x="248.5" y="400.1" class="st0" width="19.7" height="35.4"/>
<circle class="st1" cx="240.3" cy="332.7" r="22.2"/>
<circle class="st2" cx="240.3" cy="332.7" r="7.4"/>
<path class="st3" d="M175.6,288.7c-5.2-23.5,11.5-47.2,37.5-53c25.9-5.8,51.2,8.6,56.4,32.1c5.2,23.5-11.9,32.2-37.9,37.9
	S180.9,312.2,175.6,288.7z"/>
<ellipse transform="matrix(0.4285 -0.9035 0.9035 0.4285 -193.6314 331.7769)" class="st0" cx="165.5" cy="319" rx="10.2" ry="32.5"/>
<path class="st1" d="M206.7,372.5c0,6.4,16.4,18.9,34.5,18.9s35.2-17.9,35.2-24.3c0-6.4-17,1.2-35.2,1.2S206.7,366.2,206.7,372.5z"
	/>
<ellipse class="st0" cx="465.2" cy="435.9" rx="16.4" ry="6.2"/>
<ellipse class="st0" cx="425.7" cy="435" rx="16.4" ry="6.2"/>
<ellipse transform="matrix(0.4994 -0.8664 0.8664 0.4994 -95.3736 492.3446)" class="st0" cx="378.4" cy="328.7" rx="10.2" ry="32.5"/>
<circle class="st0" cx="452" cy="349.1" r="65"/>
<rect x="461.9" y="400.1" class="st0" width="19.7" height="35.4"/>
<rect x="422.4" y="400.1" class="st0" width="19.7" height="35.4"/>
<circle class="st1" cx="436.8" cy="332.7" r="22.2"/>
<ellipse transform="matrix(0.7074 -0.7068 0.7068 0.7074 -108.2534 403.7996)" class="st2" cx="433.6" cy="332.7" rx="7.4" ry="7.4"/>
<path class="st4" d="M459,305.7c-25.9-5.8-43.1-14.5-37.9-37.9c5.2-23.5,30.5-37.8,56.4-32.1c25.9,5.8,42.7,29.5,37.5,53
	C509.8,312.2,484.9,311.5,459,305.7z"/>
<ellipse transform="matrix(0.9665 -0.2567 0.2567 0.9665 -77.1257 143.6329)" class="st0" cx="511.6" cy="367.2" rx="10.2" ry="32.5"/>
<path class="st1" d="M437.3,368.4c-11.9,0-23.1-7.6-23.1-1.2c0,6.4,11.2,24.3,23.1,24.3s22.7-12.6,22.7-18.9
	C460,366.2,449.2,368.4,437.3,368.4z"/>
<g id="XMLID_451_">
	<linearGradient id="XMLID_2_" gradientUnits="userSpaceOnUse" x1="314.5666" y1="129.0978" x2="413.3116" y2="300.1291">
		<stop  offset="0" style="stop-color:#EEA849"/>
		<stop  offset="0.3556" style="stop-color:#EEA549"/>
		<stop  offset="0.5722" style="stop-color:#EF9D48"/>
		<stop  offset="0.7516" style="stop-color:#F08F47"/>
		<stop  offset="0.9098" style="stop-color:#F27A46"/>
		<stop  offset="1" style="stop-color:#F46B45"/>
	</linearGradient>
	<path id="XMLID_453_" class="st5" d="M412.6,169.2l4.4-22.2H283.7l4.4,22.2h-34.6v8.3c0,18,5.8,35,16.7,49.2
		c10.1,13.1,24.3,23,40,27.9c7.5,10.1,18.8,17.9,31.8,20.3v18.8h-29.8v21h75.9v-21h-29.4v-18.8c13-2.4,24.3-10.2,31.8-20.3
		c15.7-4.9,29.8-14.7,40-27.9c11-14.2,16.7-31.2,16.7-49.2v-8.3H412.6z M270.8,185.9h20.7l9.2,46.1
		C284.5,222,273.3,204.8,270.8,185.9z M350.4,263.1v-12.6c11.7,0,22-10.3,24.3-19.9l12.2,2.9C383.5,248,368.8,263.1,350.4,263.1z
		 M400,232l9.2-46.1h20.7C427.4,204.8,416.2,222,400,232z"/>
</g>
<g>
	<path class="st6" d="M273.1,78.5l24.5,48.8l-31.3-44.7c-1.3-1.8-0.8-4.3,1-5.6c1.8-1.3,4.3-0.8,5.6,1
		C272.9,78.2,273.1,78.4,273.1,78.5z"/>
</g>
<g>
	<path class="st6" d="M432.4,82.6L401,127.4l24.5-48.8c1-2,3.4-2.8,5.4-1.8c2,1,2.8,3.4,1.8,5.4C432.6,82.3,432.5,82.5,432.4,82.6z"
		/>
</g>
<g>
	<path class="st6" d="M300,66.6l24.3,60.8L292.8,70c-1.1-1.9-0.4-4.4,1.6-5.4c1.9-1.1,4.4-0.4,5.4,1.6
		C299.9,66.3,299.9,66.5,300,66.6z"/>
</g>
<g>
	<path class="st6" d="M407.9,70l-31.5,57.3l24.3-60.8c0.8-2.1,3.2-3.1,5.2-2.2c2.1,0.8,3.1,3.2,2.2,5.2
		C408.1,69.7,408,69.9,407.9,70z"/>
</g>
</svg>
